<svg width="25" height="25" viewBox="0 0 25 25" fill="none" xmlns="http://www.w3.org/2000/svg">
<rect width="25" height="25" fill="#1E1E1E"/>
<g id="frontend" clip-path="url(#clip0_0_1)">
<rect width="1440" height="2271" transform="translate(-423 -922)" fill="#252323"/>
<g id="Group 66" filter="url(#filter0_d_0_1)">
<g id="Frame 1" filter="url(#filter1_bd_0_1)">
<rect x="-408" y="-346" width="1072" height="400" rx="25" fill="white" fill-opacity="0.1" shape-rendering="crispEdges"/>
</g>
<g id="Group 69">
<g id="Group 68">
<path id="Vector" d="M12.5 25C5.59644 25 0 19.4035 0 12.5C0 5.59644 5.59644 0 12.5 0C19.4035 0 25 5.59644 25 12.5C25 19.4035 19.4035 25 12.5 25ZM17.4999 7.5H15.8124V12.5H17.4999V7.5ZM9.18261 9.63671L16.7563 19.4224L18.0739 18.4116L9.60351 7.5H7.5V17.4961H9.18261V9.63671Z" fill="url(#paint0_linear_0_1)"/>
</g>
</g>
</g>
</g>
<defs>
<filter id="filter0_d_0_1" x="-412" y="-346" width="1080" height="408" filterUnits="userSpaceOnUse" color-interpolation-filters="sRGB">
<feFlood flood-opacity="0" result="BackgroundImageFix"/>
<feColorMatrix in="SourceAlpha" type="matrix" values="0 0 0 0 0 0 0 0 0 0 0 0 0 0 0 0 0 0 127 0" result="hardAlpha"/>
<feOffset dy="4"/>
<feGaussianBlur stdDeviation="2"/>
<feComposite in2="hardAlpha" operator="out"/>
<feColorMatrix type="matrix" values="0 0 0 0 0 0 0 0 0 0 0 0 0 0 0 0 0 0 0.25 0"/>
<feBlend mode="normal" in2="BackgroundImageFix" result="effect1_dropShadow_0_1"/>
<feBlend mode="normal" in="SourceGraphic" in2="effect1_dropShadow_0_1" result="shape"/>
</filter>
<filter id="filter1_bd_0_1" x="-418" y="-356" width="1092" height="420" filterUnits="userSpaceOnUse" color-interpolation-filters="sRGB">
<feFlood flood-opacity="0" result="BackgroundImageFix"/>
<feGaussianBlur in="BackgroundImageFix" stdDeviation="5"/>
<feComposite in2="SourceAlpha" operator="in" result="effect1_backgroundBlur_0_1"/>
<feColorMatrix in="SourceAlpha" type="matrix" values="0 0 0 0 0 0 0 0 0 0 0 0 0 0 0 0 0 0 127 0" result="hardAlpha"/>
<feOffset dx="2" dy="4"/>
<feGaussianBlur stdDeviation="2.5"/>
<feComposite in2="hardAlpha" operator="out"/>
<feColorMatrix type="matrix" values="0 0 0 0 0 0 0 0 0 0 0 0 0 0 0 0 0 0 0.25 0"/>
<feBlend mode="normal" in2="effect1_backgroundBlur_0_1" result="effect2_dropShadow_0_1"/>
<feBlend mode="normal" in="SourceGraphic" in2="effect2_dropShadow_0_1" result="shape"/>
</filter>
<linearGradient id="paint0_linear_0_1" x1="2" y1="15.5" x2="23" y2="9.5" gradientUnits="userSpaceOnUse">
<stop stop-color="#F25D76"/>
<stop offset="1" stop-color="white"/>
</linearGradient>
<clipPath id="clip0_0_1">
<rect width="1440" height="2271" fill="white" transform="translate(-423 -922)"/>
</clipPath>
</defs>
</svg>
