<svg width="15" height="21" viewBox="0 0 15 21" fill="none" xmlns="http://www.w3.org/2000/svg">
<path d="M10.9708 7.029C11.8732 7.00192 12.7295 6.62443 13.3582 5.97657C13.9869 5.32872 14.3386 4.46146 14.3386 3.55869C14.3386 2.65593 13.9869 1.78866 13.3582 1.14081C12.7295 0.492953 11.8732 0.11546 10.9708 0.0883789H4.02917C3.12681 0.11546 2.27049 0.492953 1.64178 1.14081C1.01308 1.78866 0.661446 2.65593 0.661446 3.55869C0.661446 4.46146 1.01308 5.32872 1.64178 5.97657C2.27049 6.62443 3.12681 7.00192 4.02917 7.029C3.11892 7.04477 2.25129 7.41744 1.61315 8.06673C0.975012 8.71601 0.617432 9.58997 0.617432 10.5004C0.617432 11.4107 0.975012 12.2847 1.61315 12.934C2.25129 13.5833 3.11892 13.9559 4.02917 13.9717C3.12337 13.9939 2.26214 14.3693 1.62934 15.0178C0.996548 15.6663 0.642337 16.5365 0.642337 17.4425C0.642337 18.3486 0.996548 19.2188 1.62934 19.8673C2.26214 20.5158 3.12337 20.8912 4.02917 20.9134C4.9497 20.9128 5.83236 20.5468 6.48318 19.8958C7.134 19.2448 7.49973 18.362 7.5 17.4415V7.029H10.9708Z" fill="url(#paint0_linear_190_6)"/>
<path d="M10.9708 13.971C12.8877 13.971 14.4417 12.417 14.4417 10.5001C14.4417 8.58324 12.8877 7.0293 10.9708 7.0293C9.05394 7.0293 7.5 8.58324 7.5 10.5001C7.5 12.417 9.05394 13.971 10.9708 13.971Z" fill="url(#paint1_linear_190_6)"/>
<defs>
<linearGradient id="paint0_linear_190_6" x1="7.478" y1="0.0883789" x2="7.478" y2="20.9134" gradientUnits="userSpaceOnUse">
<stop stop-color="#BE1D90"/>
<stop offset="1" stop-color="#E2E8C0"/>
</linearGradient>
<linearGradient id="paint1_linear_190_6" x1="10.9708" y1="7.0293" x2="10.9708" y2="13.971" gradientUnits="userSpaceOnUse">
<stop stop-color="#BE1D90"/>
<stop offset="1" stop-color="#E2E8C0"/>
</linearGradient>
</defs>
</svg>
