<svg width="25" height="19" viewBox="0 0 25 19" fill="none" xmlns="http://www.w3.org/2000/svg">
<path d="M24.7195 13.5319C24.6344 12.8202 24.268 12.2679 23.7149 11.8351C23.0742 11.3343 22.3242 11.128 21.525 11.0952C20.8734 11.0687 20.2359 11.1655 19.6211 11.389C19.4461 11.4522 19.2742 11.5272 19.0977 11.5983C19.0742 11.5554 19.0492 11.5147 19.0289 11.4718C18.8477 11.1015 18.6289 10.7476 18.5813 10.3233C18.5469 10.0218 18.5047 9.72021 18.5766 9.42256C18.6453 9.13584 18.736 8.85381 18.8203 8.57021C18.8641 8.42412 18.8336 8.34287 18.6945 8.27725C18.6461 8.25459 18.5938 8.23428 18.5406 8.22646C18.1985 8.17725 17.8617 8.20537 17.5305 8.30146C17.4133 8.33584 17.3281 8.40146 17.3024 8.53115C17.2875 8.60537 17.257 8.67646 17.2367 8.7499C17.15 9.05537 17.0891 9.36631 16.9492 9.65693C16.5984 10.3866 16.1992 11.0882 15.7891 11.7851C15.7445 11.8601 15.6984 11.9343 15.6422 12.0257C15.4984 11.7249 15.3453 11.4554 15.2985 11.1382C15.2461 10.7804 15.2047 10.4233 15.2938 10.0679C15.3602 9.80303 15.4469 9.54287 15.5266 9.28193C15.5649 9.15771 15.5469 9.09287 15.4344 9.02725C15.3774 8.99443 15.3133 8.96475 15.2492 8.95537C14.8945 8.90303 14.5453 8.93037 14.2039 9.04131C14.0977 9.07568 14.0422 9.14443 14.0094 9.25381C13.9141 9.57646 13.8328 9.90693 13.6992 10.214C13.157 11.4562 12.6 12.6921 12.043 13.9272C11.9266 14.1851 11.7906 14.4343 11.6594 14.6851C11.6258 14.7491 11.5781 14.8046 11.5367 14.8647C11.5031 14.8257 11.4906 14.7983 11.4906 14.7718C11.4914 14.6132 11.4727 14.4491 11.5031 14.296C11.5945 13.8319 11.7 13.3694 11.8117 12.9093C11.9031 12.5296 12.0102 12.153 12.1125 11.7749C12.1469 11.6483 12.1477 11.5304 12.0563 11.4241C11.9039 11.246 11.5852 11.2069 11.3961 11.3444C11.3758 11.3593 11.3516 11.3694 11.3125 11.3921C11.3195 11.3319 11.3235 11.2944 11.3289 11.2569C11.3688 10.9679 11.3766 10.6804 11.2977 10.3952C11.1985 10.0405 10.9461 9.83662 10.5781 9.84756C10.4063 9.85303 10.2266 9.88193 10.068 9.94443C9.40001 10.2062 8.88673 10.6694 8.45001 11.2272C8.41017 11.278 8.35782 11.3241 8.30236 11.3546C7.73751 11.6679 7.17032 11.9772 6.60392 12.2882C6.3922 12.4038 6.18048 12.5202 5.97345 12.6335C5.8047 12.4718 5.65079 12.3046 5.47579 12.1624C4.94298 11.728 4.40157 11.3046 3.86564 10.8749C3.39064 10.4944 2.9297 10.0976 2.57736 9.59365C2.31486 9.21865 2.14611 8.8085 2.13048 8.34443C2.11017 7.75381 2.27736 7.21396 2.57814 6.71084C2.96329 6.06787 3.48751 5.55225 4.06486 5.08428C4.67501 4.58975 5.33517 4.17021 6.01954 3.7874C6.97657 3.25146 7.96173 2.77725 9.0172 2.46396C10.1 2.14287 11.1977 1.95928 12.3305 2.0874C12.7758 2.1374 13.2078 2.23975 13.6055 2.45771C13.9094 2.62412 14.1586 2.84209 14.275 3.1835C14.3891 3.51943 14.386 3.85928 14.3063 4.1999C14.1453 4.88975 13.7672 5.45928 13.2914 5.96787C12.5117 6.80146 11.5602 7.36865 10.4883 7.74365C9.87033 7.96006 9.23439 8.096 8.58126 8.15068C8.04845 8.19521 7.52657 8.14834 7.02189 7.9624C6.68751 7.83975 6.39689 7.65146 6.16251 7.37881C6.12032 7.32959 6.0672 7.27725 5.98907 7.32256C5.91251 7.36709 5.89923 7.44053 5.92501 7.51396C5.96798 7.63662 6.00704 7.76318 6.07423 7.87256C6.24142 8.14678 6.48595 8.346 6.7547 8.51709C7.27111 8.84521 7.84767 8.95537 8.44611 8.98115C9.35392 9.02022 10.2399 8.88506 11.1125 8.64131C12.3594 8.29365 13.443 7.67959 14.3125 6.71084C15.0367 5.90459 15.5531 4.99365 15.6641 3.89443C15.718 3.35771 15.661 2.83193 15.4094 2.34287C15.1367 1.8124 14.7039 1.44678 14.186 1.17568C13.4328 0.780371 12.6188 0.624902 11.7789 0.57959C11.4984 0.57959 11.218 0.57959 10.9375 0.57959C9.91954 0.628809 8.93595 0.842871 7.9797 1.19053C7.25626 1.45381 6.54611 1.75068 5.85704 2.09443C4.35626 2.84443 2.95861 3.74131 1.81095 4.98428C1.23907 5.60381 0.7547 6.2835 0.476575 7.08818C0.395325 7.32412 0.345325 7.57412 0.286731 7.81787C0.282043 7.83818 0.3047 7.85771 0.2547 7.87803C0.2547 7.99287 0.2547 8.10693 0.2547 8.22178C0.3047 8.31006 0.310168 8.39756 0.332825 8.48584C0.480481 9.0585 0.784387 9.55068 1.16095 9.99912C1.69767 10.6382 2.34689 11.1522 3.02032 11.6366C3.60392 12.0562 4.19611 12.4663 4.78204 12.8827C4.88282 12.9538 4.97579 13.0366 5.08517 13.1241C4.99142 13.1749 4.91251 13.2194 4.83126 13.2608C4.05782 13.653 3.31407 14.0929 2.62814 14.6257C2.21486 14.9468 1.81486 15.2882 1.53282 15.7335C1.07892 16.4507 0.917981 17.2147 1.25626 18.0304C1.35548 18.2687 1.50626 18.4749 1.71876 18.6265C1.78751 18.6757 1.86486 18.7249 1.94532 18.7437C2.15157 18.7921 2.36251 18.8241 2.57189 18.8624C2.76954 18.8624 2.96642 18.8624 3.16407 18.8624C3.81954 18.8038 4.41564 18.5796 4.95392 18.2077C5.79611 17.6265 6.36329 16.8476 6.60782 15.8468C6.78517 15.1202 6.7922 14.3921 6.58361 13.6687C6.56407 13.6015 6.53986 13.5358 6.51407 13.471C6.48829 13.4062 6.45861 13.3429 6.42345 13.2616C6.87032 13.0046 7.31876 12.7468 7.76642 12.489C7.77345 12.4944 7.7797 12.5007 7.78673 12.5062C7.76251 12.5858 7.73673 12.6655 7.71407 12.7468C7.5547 13.3296 7.44845 13.9226 7.48673 14.5272C7.52736 15.1718 7.70704 15.7749 8.08439 16.314C8.38907 16.7499 9.11642 16.7655 9.44064 16.3288C9.55548 16.1733 9.6672 16.0116 9.75079 15.8382C9.96954 15.3858 10.1727 14.9257 10.3813 14.4687C10.3906 14.4491 10.3984 14.4296 10.418 14.3851C10.4031 14.6015 10.3852 14.7913 10.3774 14.9819C10.3649 15.2788 10.382 15.5741 10.4836 15.8569C10.5703 16.0991 10.718 16.2796 10.9953 16.3108C11.1844 16.3327 11.3359 16.246 11.475 16.1358C11.693 15.964 11.8695 15.7522 12.0008 15.5108C12.3719 14.8288 12.7531 14.1515 13.0899 13.4522C13.4539 12.696 13.7719 11.9179 14.1102 11.1491C14.1289 11.1069 14.1453 11.064 14.1664 11.0124C14.2461 11.3265 14.3024 11.6335 14.4047 11.9249C14.5234 12.2624 14.6711 12.5921 14.832 12.9124C14.9078 13.064 14.8992 13.1624 14.7938 13.289C14.3531 13.8202 13.9203 14.3577 13.4867 14.8952C13.3906 15.014 13.2953 15.1343 13.2156 15.264C13.1672 15.3429 13.1352 15.4382 13.1219 15.5304C13.0961 15.7062 13.2039 15.8749 13.3922 15.9155C13.5633 15.9522 13.7461 15.9663 13.9211 15.953C14.5258 15.9085 15.075 15.696 15.5609 15.3366C16.1899 14.8702 16.3922 14.2351 16.2399 13.4812C16.1985 13.2765 16.1258 13.0772 16.0547 12.8804C16.0227 12.7913 16.0211 12.7288 16.0789 12.646C16.582 11.928 17.0117 11.1655 17.4109 10.3866C17.4266 10.3562 17.443 10.3249 17.4703 10.2921C17.6 10.9663 17.7945 11.6155 18.1438 12.2046C17.9656 12.3765 17.7891 12.5319 17.6297 12.7038C17.2781 13.0812 16.9734 13.4921 16.8149 13.9921C16.7469 14.2077 16.6938 14.4265 16.7242 14.6577C16.7719 15.0155 17.0649 15.2476 17.4164 15.1663C18.1688 14.9921 18.8188 14.6374 19.2938 14.0093C19.6133 13.5866 19.6422 13.1147 19.5086 12.6202C19.4719 12.4858 19.4281 12.3538 19.3813 12.1991C19.5672 12.1413 19.7484 12.0726 19.9352 12.0296C20.9078 11.8077 21.8695 11.8468 22.8063 12.1976C23.3531 12.4022 23.7953 12.746 24.057 13.2858C24.3774 13.946 24.2 14.5718 23.5781 14.989C23.5203 15.028 23.4539 15.0585 23.4055 15.1069C23.3758 15.1366 23.3586 15.1968 23.3656 15.2374C23.3695 15.2616 23.4336 15.2913 23.4695 15.2913C23.6742 15.2897 23.8399 15.1827 23.9992 15.0726C24.3984 14.7968 24.6617 14.4249 24.7242 13.9366C24.7258 13.9226 24.7055 13.9093 24.7555 13.896C24.7555 13.7874 24.7555 13.6796 24.7555 13.571C24.7055 13.5577 24.7266 13.5444 24.725 13.5304L24.7195 13.5319ZM5.6922 14.8522C5.62736 15.7233 5.23282 16.4296 4.58751 17.0007C4.22423 17.3226 3.80861 17.5515 3.32345 17.6319C3.14767 17.6608 2.96798 17.6679 2.79689 17.5952C2.55392 17.4913 2.49923 17.2757 2.49454 17.0452C2.48751 16.6788 2.61564 16.3476 2.79142 16.0327C3.02111 15.6218 3.35782 15.3085 3.7172 15.0163C4.28361 14.5554 4.89845 14.1647 5.52736 13.7968C5.53751 13.7905 5.55001 13.7874 5.57501 13.7772C5.67189 14.1366 5.71876 14.4913 5.69142 14.853L5.6922 14.8522ZM10.6063 11.0671C10.5602 11.3452 10.5031 11.6233 10.4219 11.8929C10.1406 12.8257 9.78048 13.7304 9.39064 14.6218C9.31876 14.7866 9.21407 14.9374 9.12267 15.0937C9.10861 15.1179 9.08751 15.139 9.0672 15.1593C8.9547 15.271 8.84689 15.2647 8.78986 15.1187C8.72345 14.9491 8.68283 14.7679 8.64767 14.5882C8.62423 14.4679 8.6297 14.3413 8.62267 14.2179C8.63048 13.3405 8.89767 12.5421 9.35236 11.7999C9.53986 11.4937 9.74376 11.2022 10.0547 11.0077C10.1508 10.9483 10.2578 10.9007 10.3664 10.8694C10.532 10.8226 10.6344 10.8999 10.607 11.0663L10.6063 11.0671ZM13.9586 15.3382C14.3602 14.8694 14.761 14.4015 15.1633 13.9312C15.2133 14.4538 14.3258 15.4968 13.9586 15.3382ZM17.807 14.3921C17.7219 14.4405 17.6289 14.4765 17.5414 14.521C17.4617 14.5624 17.4352 14.521 17.4328 14.4522C17.4313 14.4054 17.4383 14.3569 17.4508 14.3116C17.6133 13.7374 17.9125 13.2483 18.3586 12.8499C18.3649 12.8437 18.375 12.8413 18.3899 12.8335C18.6016 13.4257 18.3578 14.0772 17.807 14.3921Z" fill="url(#paint0_linear_166_239)"/>
<defs>
<linearGradient id="paint0_linear_166_239" x1="12.5051" y1="0.57959" x2="12.5051" y2="18.8624" gradientUnits="userSpaceOnUse">
<stop stop-color="#BE1D90"/>
<stop offset="1" stop-color="white"/>
</linearGradient>
</defs>
</svg>
